<?xml version="1.0" encoding="iso-8859-1"?>
<!-- Generator: Adobe Illustrator 24.1.2, SVG Export Plug-In . SVG Version: 6.00 Build 0)  -->
<svg version="1.1" id="Layer_1" xmlns="http://www.w3.org/2000/svg" xmlns:xlink="http://www.w3.org/1999/xlink" x="0px" y="0px"
	 viewBox="0 0 27 19" enable-background="new 0 0 27 19" xml:space="preserve">
<path fill="#FFFFFF" d="M5.729,12.293c-0.511,2.728-1.357,4.689-2.031,5.903c-0.264,0.475,0.274,1.002,0.753,0.73
	c5.65-3.21,8.127-7.891,8.435-11.645c0.266-3.238-2-6.573-5.435-7.181C4.015-0.507,0.725,1.715,0.102,5.063
	C-0.55,8.572,1.988,11.945,5.729,12.293z"/>
<path fill="#FFFFFF" d="M19.822,12.293c-0.511,2.728-1.357,4.689-2.032,5.903c-0.264,0.475,0.275,1.002,0.753,0.73
	c5.65-3.21,8.127-7.891,8.435-11.645c0.266-3.238-2-6.573-5.435-7.181c-3.435-0.607-6.724,1.615-7.347,4.963
	C13.543,8.572,16.082,11.945,19.822,12.293z"/>
</svg>
