<?xml version="1.0" encoding="utf-8"?>
<!-- Generator: Adobe Illustrator 24.0.1, SVG Export Plug-In . SVG Version: 6.00 Build 0)  -->
<svg version="1.1" id="Layer_1" xmlns="http://www.w3.org/2000/svg" xmlns:xlink="http://www.w3.org/1999/xlink" x="0px" y="0px"
	 viewBox="0 0 44 36" style="enable-background:new 0 0 44 36;" xml:space="preserve">
<style type="text/css">
	.st0{fill:#231F20;}
</style>
<g>
	<g>
		<path class="st0" d="M22.27,32.54H3.52c-1.99,0-3.62-1.62-3.62-3.62V4.12c0-1.99,1.62-3.62,3.62-3.62h18.74
			c1.99,0,3.62,1.62,3.62,3.62v24.8C25.88,30.92,24.26,32.54,22.27,32.54z M3.52,2.31c-1,0-1.82,0.82-1.82,1.82v24.8
			c0,1,0.81,1.82,1.82,1.82h18.74c1,0,1.82-0.82,1.82-1.82V4.12c0-1-0.81-1.82-1.82-1.82H3.52z"/>
	</g>
	<g>
		<path class="st0" d="M15.35,17.31c-0.23,0-0.46-0.09-0.64-0.26c-1-1-2.64-1-3.64,0c-0.35,0.35-0.92,0.35-1.27,0L2.36,9.6
			c-0.35-0.35-0.35-0.92,0-1.27c5.81-5.81,15.26-5.81,21.08,0c0.35,0.35,0.35,0.92,0,1.27l-7.44,7.44
			C15.81,17.22,15.58,17.31,15.35,17.31z M4.29,8.99l6.21,6.21c1.41-0.93,3.38-0.93,4.79,0l6.21-6.21
			c-2.39-2.08-5.41-3.22-8.61-3.22C9.7,5.76,6.67,6.9,4.29,8.99z"/>
	</g>
	<g>
		<path class="st0" d="M12.9,25.51c-1.4,0-2.55-1.14-2.55-2.55c0-1.4,1.14-2.55,2.55-2.55c1.4,0,2.55,1.14,2.55,2.55
			C15.44,24.37,14.3,25.51,12.9,25.51z M12.9,22.22c-0.41,0-0.75,0.33-0.75,0.75c0,0.41,0.33,0.75,0.75,0.75
			c0.41,0,0.75-0.33,0.75-0.75C13.64,22.56,13.31,22.22,12.9,22.22z"/>
	</g>
	<g>
		<path class="st0" d="M6.04,25.51c-1.4,0-2.55-1.14-2.55-2.55c0-1.4,1.14-2.55,2.55-2.55s2.55,1.14,2.55,2.55
			C8.59,24.37,7.44,25.51,6.04,25.51z M6.04,22.22c-0.41,0-0.75,0.33-0.75,0.75c0,0.41,0.33,0.75,0.75,0.75
			c0.41,0,0.75-0.33,0.75-0.75C6.79,22.56,6.45,22.22,6.04,22.22z"/>
	</g>
	<g>
		<path class="st0" d="M19.75,25.51c-1.4,0-2.55-1.14-2.55-2.55c0-1.4,1.14-2.55,2.55-2.55c1.4,0,2.55,1.14,2.55,2.55
			C22.3,24.37,21.15,25.51,19.75,25.51z M19.75,22.22c-0.41,0-0.75,0.33-0.75,0.75c0,0.41,0.33,0.75,0.75,0.75
			c0.41,0,0.75-0.33,0.75-0.75C20.5,22.56,20.16,22.22,19.75,22.22z"/>
	</g>
	<g>
		<path class="st0" d="M17.86,10.27c-0.15,0-0.3-0.04-0.43-0.11c-2.76-1.52-6.3-1.52-9.05,0C7.93,10.4,7.38,10.24,7.15,9.8
			C6.91,9.37,7.06,8.82,7.5,8.58c3.29-1.81,7.51-1.81,10.79,0c0.44,0.24,0.59,0.79,0.35,1.22C18.48,10.1,18.17,10.27,17.86,10.27z"
			/>
	</g>
	<g>
		<path class="st0" d="M11.32,36.29c-2.57,0-4.66-2.09-4.66-4.66c0-0.5,0.4-0.9,0.9-0.9c0.5,0,0.9,0.4,0.9,0.9
			c0,1.58,1.28,2.86,2.86,2.86c0.5,0,0.9,0.4,0.9,0.9S11.82,36.29,11.32,36.29z"/>
	</g>
	<g>
		<path class="st0" d="M19.72,36.29c-2.57,0-4.66-2.09-4.66-4.66c0-0.5,0.4-0.9,0.9-0.9c0.5,0,0.9,0.4,0.9,0.9
			c0,1.58,1.28,2.86,2.86,2.86c0.5,0,0.9,0.4,0.9,0.9S20.22,36.29,19.72,36.29z"/>
	</g>
	<g>
		<path class="st0" d="M36.9,36.29c-0.5,0-0.9-0.4-0.9-0.9s0.4-0.9,0.9-0.9c1.58,0,2.86-1.28,2.86-2.86c0-0.5,0.4-0.9,0.9-0.9
			c0.5,0,0.9,0.4,0.9,0.9C41.56,34.2,39.47,36.29,36.9,36.29z"/>
	</g>
	<g>
		<path class="st0" d="M28.5,36.29c-0.5,0-0.9-0.4-0.9-0.9s0.4-0.9,0.9-0.9c1.58,0,2.86-1.28,2.86-2.86c0-0.5,0.4-0.9,0.9-0.9
			s0.9,0.4,0.9,0.9C33.16,34.2,31.07,36.29,28.5,36.29z"/>
	</g>
	<g>
		<path class="st0" d="M36.9,36.29H11.32c-0.5,0-0.9-0.4-0.9-0.9s0.4-0.9,0.9-0.9H36.9c0.5,0,0.9,0.4,0.9,0.9S37.4,36.29,36.9,36.29
			z"/>
	</g>
	<g>
		<path class="st0" d="M32.26,32.53c-0.5,0-0.9-0.4-0.9-0.9v-5.92c0-0.5,0.4-0.9,0.9-0.9s0.9,0.4,0.9,0.9v5.92
			C33.16,32.12,32.76,32.53,32.26,32.53z"/>
	</g>
	<g>
		<path class="st0" d="M40.66,32.53c-0.5,0-0.9-0.4-0.9-0.9v-5.92c0-0.5,0.4-0.9,0.9-0.9c0.5,0,0.9,0.4,0.9,0.9v5.92
			C41.56,32.12,41.16,32.53,40.66,32.53z"/>
	</g>
	<g>
		<path class="st0" d="M34.39,26.61h-4.26c-0.5,0-0.9-0.4-0.9-0.9v-8.45c0-0.5,0.4-0.9,0.9-0.9h4.26c0.5,0,0.9,0.4,0.9,0.9v8.45
			C35.29,26.21,34.88,26.61,34.39,26.61z M31.03,24.81h2.46v-6.65h-2.46V24.81z"/>
	</g>
	<g>
		<path class="st0" d="M42.79,26.61h-4.26c-0.5,0-0.9-0.4-0.9-0.9v-8.45c0-0.5,0.4-0.9,0.9-0.9h4.26c0.5,0,0.9,0.4,0.9,0.9v8.45
			C43.69,26.21,43.29,26.61,42.79,26.61z M39.44,24.81h2.46v-6.65h-2.46V24.81z"/>
	</g>
	<g>
		<path class="st0" d="M32.26,18.16c-0.5,0-0.9-0.4-0.9-0.9v-6.18c0-0.5,0.4-0.9,0.9-0.9s0.9,0.4,0.9,0.9v6.18
			C33.16,17.76,32.76,18.16,32.26,18.16z"/>
	</g>
	<g>
		<path class="st0" d="M40.66,18.16c-0.5,0-0.9-0.4-0.9-0.9v-6.18c0-0.5,0.4-0.9,0.9-0.9c0.5,0,0.9,0.4,0.9,0.9v6.18
			C41.56,17.76,41.16,18.16,40.66,18.16z"/>
	</g>
</g>
</svg>
