<?xml version="1.0" encoding="utf-8"?>
<!-- Generator: Adobe Illustrator 24.0.1, SVG Export Plug-In . SVG Version: 6.00 Build 0)  -->
<svg version="1.1" id="Layer_1" xmlns="http://www.w3.org/2000/svg" xmlns:xlink="http://www.w3.org/1999/xlink" x="0px" y="0px"
	 viewBox="0 0 51 45" style="enable-background:new 0 0 51 45;" xml:space="preserve">
<style type="text/css">
	.st0{fill:#231F20;}
</style>
<g>
	<g>
		<path class="st0" d="M49.81,37.93c-0.3,0-0.6-0.15-0.77-0.43l-9.11-14.77c-0.26-0.42-0.13-0.98,0.29-1.24
			c0.42-0.26,0.98-0.13,1.24,0.29l9.11,14.77c0.26,0.42,0.13,0.98-0.29,1.24C50.13,37.88,49.97,37.93,49.81,37.93z"/>
	</g>
	<g>
		<path class="st0" d="M1.69,37.79c-0.16,0-0.32-0.04-0.47-0.13c-0.42-0.26-0.55-0.82-0.29-1.24l9.03-14.63
			c0.26-0.42,0.82-0.55,1.24-0.29c0.42,0.26,0.55,0.82,0.29,1.24L2.45,37.36C2.29,37.64,1.99,37.79,1.69,37.79z"/>
	</g>
	<g>
		<path class="st0" d="M45.91,44.79H5.5c-3,0-5.44-2.44-5.44-5.44s2.44-5.44,5.44-5.44s5.44,2.44,5.44,5.44
			c0,1.75-1.42,3.17-3.17,3.17c-1.75,0-3.17-1.42-3.17-3.17c0-0.5,0.4-0.9,0.9-0.9s0.9,0.4,0.9,0.9c0,0.76,0.61,1.37,1.37,1.37
			c0.76,0,1.37-0.61,1.37-1.37c0-2.01-1.63-3.64-3.64-3.64c-2.01,0-3.64,1.63-3.64,3.64c0,2.01,1.63,3.64,3.64,3.64h40.41
			c2.01,0,3.64-1.63,3.64-3.64c0-2.01-1.63-3.64-3.64-3.64c-2.01,0-3.64,1.63-3.64,3.64c0,0.76,0.61,1.37,1.37,1.37
			c0.76,0,1.37-0.61,1.37-1.37c0-0.5,0.4-0.9,0.9-0.9c0.5,0,0.9,0.4,0.9,0.9c0,1.75-1.42,3.17-3.17,3.17
			c-1.75,0-3.17-1.42-3.17-3.17c0-3,2.44-5.44,5.44-5.44s5.44,2.44,5.44,5.44S48.91,44.79,45.91,44.79z"/>
	</g>
	<g>
		<g>
			<g>
				<path class="st0" d="M25.73,30.05c-0.5,0-0.9-0.4-0.9-0.9v-1c0-0.5,0.4-0.9,0.9-0.9c0.5,0,0.9,0.4,0.9,0.9v1
					C26.63,29.65,26.22,30.05,25.73,30.05z"/>
			</g>
			<g>
				<path class="st0" d="M25.73,26.17c-0.5,0-0.9-0.4-0.9-0.9v-1.92c0-0.5,0.4-0.9,0.9-0.9c0.5,0,0.9,0.4,0.9,0.9v1.92
					C26.63,25.77,26.22,26.17,25.73,26.17z M25.73,21.38c-0.5,0-0.9-0.4-0.9-0.9v-1.92c0-0.5,0.4-0.9,0.9-0.9c0.5,0,0.9,0.4,0.9,0.9
					v1.92C26.63,20.97,26.22,21.38,25.73,21.38z M25.73,16.58c-0.5,0-0.9-0.4-0.9-0.9v-1.92c0-0.5,0.4-0.9,0.9-0.9
					c0.5,0,0.9,0.4,0.9,0.9v1.92C26.63,16.18,26.22,16.58,25.73,16.58z M25.73,11.79c-0.5,0-0.9-0.4-0.9-0.9V8.97
					c0-0.5,0.4-0.9,0.9-0.9c0.5,0,0.9,0.4,0.9,0.9v1.92C26.63,11.38,26.22,11.79,25.73,11.79z M25.73,6.99c-0.5,0-0.9-0.4-0.9-0.9
					V4.17c0-0.5,0.4-0.9,0.9-0.9c0.5,0,0.9,0.4,0.9,0.9v1.92C26.63,6.59,26.22,6.99,25.73,6.99z"/>
			</g>
			<g>
				<path class="st0" d="M25.73,2.2c-0.5,0-0.9-0.4-0.9-0.9v-1c0-0.5,0.4-0.9,0.9-0.9c0.5,0,0.9,0.4,0.9,0.9v1
					C26.63,1.79,26.22,2.2,25.73,2.2z"/>
			</g>
		</g>
		<g>
			<g>
				<path class="st0" d="M23.04,25.67h-1.52c-0.5,0-0.9-0.4-0.9-0.9v-1.69c-0.62-0.18-1.21-0.42-1.77-0.73l-1.2,1.2
					c-0.34,0.34-0.93,0.34-1.27,0l-2.15-2.15c-0.17-0.17-0.26-0.4-0.26-0.64c0-0.24,0.1-0.47,0.26-0.64l1.2-1.2
					c-0.31-0.56-0.56-1.16-0.73-1.77h-1.69c-0.5,0-0.9-0.4-0.9-0.9V13.2c0-0.5,0.4-0.9,0.9-0.9h1.69c0.18-0.62,0.42-1.21,0.73-1.77
					l-1.2-1.2c-0.17-0.17-0.26-0.4-0.26-0.64c0-0.24,0.09-0.47,0.26-0.64l2.15-2.15c0.17-0.17,0.4-0.26,0.64-0.26l0,0
					c0.24,0,0.47,0.1,0.64,0.26l1.2,1.2c0.56-0.31,1.16-0.56,1.77-0.73V4.67c0-0.5,0.4-0.9,0.9-0.9h1.52c0.5,0,0.9,0.4,0.9,0.9
					c0,0.5-0.4,0.9-0.9,0.9h-0.62v1.5c0,0.43-0.3,0.8-0.73,0.88c-0.89,0.18-1.73,0.52-2.49,1.03c-0.36,0.24-0.83,0.19-1.14-0.11
					l-1.06-1.06l-0.88,0.88l1.06,1.06c0.3,0.3,0.35,0.78,0.11,1.14c-0.51,0.76-0.85,1.59-1.03,2.49c-0.08,0.42-0.45,0.73-0.88,0.73
					h-1.5v1.24h1.5c0.43,0,0.8,0.3,0.88,0.73c0.18,0.89,0.52,1.73,1.03,2.49c0.24,0.36,0.19,0.83-0.11,1.14l-1.06,1.06l0.88,0.88
					l1.06-1.06c0.3-0.3,0.78-0.35,1.14-0.11c0.76,0.51,1.59,0.85,2.49,1.03c0.42,0.08,0.73,0.45,0.73,0.88v1.5h0.62
					c0.5,0,0.9,0.4,0.9,0.9C23.94,25.27,23.53,25.67,23.04,25.67z"/>
			</g>
			<g>
				<path class="st0" d="M23.04,19.72c-2.76,0-5-2.24-5-5c0-2.76,2.24-5,5-5c0.5,0,0.9,0.4,0.9,0.9c0,0.5-0.4,0.9-0.9,0.9
					c-1.76,0-3.2,1.43-3.2,3.2c0,1.76,1.43,3.2,3.2,3.2c0.5,0,0.9,0.4,0.9,0.9C23.94,19.32,23.53,19.72,23.04,19.72z"/>
			</g>
		</g>
		<g>
			<g>
				<path class="st0" d="M29.94,25.67h-1.52c-0.5,0-0.9-0.4-0.9-0.9c0-0.5,0.4-0.9,0.9-0.9h0.62v-1.5c0-0.43,0.3-0.8,0.73-0.88
					c0.89-0.18,1.73-0.52,2.48-1.03c0.36-0.24,0.83-0.19,1.14,0.11l1.06,1.06l0.88-0.88l-1.06-1.06c-0.3-0.3-0.35-0.78-0.11-1.14
					c0.51-0.76,0.85-1.59,1.03-2.49c0.08-0.42,0.45-0.73,0.88-0.73h1.5V14.1h-1.5c-0.43,0-0.8-0.3-0.88-0.73
					c-0.18-0.89-0.52-1.73-1.03-2.49c-0.24-0.36-0.19-0.83,0.11-1.14l1.06-1.06l-0.88-0.88l-1.06,1.06c-0.3,0.3-0.78,0.35-1.14,0.11
					c-0.75-0.51-1.59-0.85-2.48-1.03c-0.42-0.08-0.73-0.45-0.73-0.88v-1.5h-0.62c-0.5,0-0.9-0.4-0.9-0.9c0-0.5,0.4-0.9,0.9-0.9h1.52
					c0.5,0,0.9,0.4,0.9,0.9v1.69c0.62,0.18,1.21,0.42,1.77,0.73l1.2-1.2c0.35-0.35,0.92-0.35,1.27,0l2.15,2.15
					c0.17,0.17,0.26,0.4,0.26,0.64c0,0.24-0.1,0.47-0.26,0.64l-1.2,1.2c0.31,0.56,0.56,1.16,0.73,1.77h1.69c0.5,0,0.9,0.4,0.9,0.9
					v3.04c0,0.5-0.4,0.9-0.9,0.9h-1.69c-0.18,0.62-0.42,1.21-0.73,1.77l1.2,1.2c0.17,0.17,0.26,0.4,0.26,0.64
					c0,0.24-0.09,0.47-0.26,0.64l-2.15,2.15c-0.35,0.35-0.92,0.35-1.27,0l-1.2-1.2c-0.56,0.31-1.16,0.56-1.77,0.73v1.69
					C30.84,25.27,30.44,25.67,29.94,25.67z"/>
			</g>
			<g>
				<path class="st0" d="M28.42,19.72c-0.5,0-0.9-0.4-0.9-0.9c0-0.5,0.4-0.9,0.9-0.9c1.76,0,3.2-1.43,3.2-3.2
					c0-1.76-1.43-3.2-3.2-3.2c-0.5,0-0.9-0.4-0.9-0.9c0-0.5,0.4-0.9,0.9-0.9c2.76,0,5,2.24,5,5C33.42,17.48,31.18,19.72,28.42,19.72
					z"/>
			</g>
		</g>
	</g>
	<g>
		<path class="st0" d="M9.87,41.11c-0.13,0-0.26-0.03-0.38-0.09c-0.45-0.21-0.64-0.75-0.43-1.2l6.41-13.57
			c0.21-0.45,0.75-0.64,1.2-0.43c0.45,0.21,0.64,0.75,0.43,1.2L10.69,40.6C10.54,40.92,10.21,41.11,9.87,41.11z"/>
	</g>
	<g>
		<path class="st0" d="M41.58,41.11c-0.34,0-0.66-0.19-0.81-0.52l-6.41-13.57c-0.21-0.45-0.02-0.99,0.43-1.2
			c0.45-0.21,0.99-0.02,1.2,0.43l6.41,13.57c0.21,0.45,0.02,0.99-0.43,1.2C41.84,41.09,41.71,41.11,41.58,41.11z"/>
	</g>
</g>
</svg>
