<?xml version="1.0" encoding="utf-8"?>
<!-- Generator: Adobe Illustrator 24.0.1, SVG Export Plug-In . SVG Version: 6.00 Build 0)  -->
<svg version="1.1" id="Layer_1" xmlns="http://www.w3.org/2000/svg" xmlns:xlink="http://www.w3.org/1999/xlink" x="0px" y="0px"
	 viewBox="0 0 148 115" style="enable-background:new 0 0 148 115;" xml:space="preserve">
<g>
	<path d="M22.92,80.65c-6.28,0-11.38,5.1-11.38,11.37c0,6.27,5.1,11.38,11.38,11.38h0.03c6.27,0,11.38-5.1,11.38-11.38
		C34.32,85.76,29.22,80.65,22.92,80.65z M22.94,97.72h-0.03c-3.14,0-5.69-2.55-5.69-5.69c0-3.14,2.55-5.69,5.72-5.69
		c3.14,0,5.69,2.55,5.69,5.69C28.63,95.17,26.08,97.72,22.94,97.72z"/>
	<path d="M49.23,80.65c-6.27,0-11.38,5.1-11.38,11.37c0,6.27,5.1,11.38,11.38,11.38h0.03c6.27,0,11.38-5.1,11.38-11.38
		C60.63,85.76,55.53,80.65,49.23,80.65z M49.26,97.72h-0.03c-3.14,0-5.69-2.55-5.69-5.69c0-3.14,2.55-5.69,5.72-5.69
		c3.14,0,5.69,2.55,5.69,5.69C54.95,95.17,52.39,97.72,49.26,97.72z"/>
	<path d="M64.16,92.03c0,6.27,5.1,11.38,11.38,11.38h0.03c6.27,0,11.38-5.1,11.38-11.38c0-6.27-5.1-11.37-11.41-11.37
		C69.27,80.65,64.16,85.76,64.16,92.03z M81.26,92.03c0,3.14-2.55,5.69-5.69,5.69h-0.03c-3.14,0-5.69-2.55-5.69-5.69
		c0-3.14,2.55-5.69,5.72-5.69C78.71,86.34,81.26,88.89,81.26,92.03z"/>
	<path d="M101.86,103.4h0.03c6.27,0,11.38-5.1,11.38-11.38c0-6.27-5.1-11.37-11.4-11.37c-6.28,0-11.38,5.1-11.38,11.37
		C90.48,98.3,95.58,103.4,101.86,103.4z M101.88,86.34c3.14,0,5.69,2.55,5.69,5.69c0,3.14-2.55,5.69-5.69,5.69h-0.03
		c-3.14,0-5.69-2.55-5.69-5.69C96.16,88.89,98.72,86.34,101.88,86.34z"/>
	<path d="M52.75,18.73c-0.53-0.53-1.25-0.83-2.01-0.83H30.71c-1.57,0-2.84,1.27-2.84,2.84v23.21c0,1.57,1.27,2.84,2.84,2.84h37.07
		c1.57,0,2.84-1.27,2.84-2.84v-6.18c0-0.75-0.3-1.48-0.83-2.01L52.75,18.73z M64.93,41.11H33.55V23.58h16.01l15.37,15.37V41.11z"/>
	<path d="M144.04,42.36L144.04,42.36c-4.21-2.83-9.93-1.72-12.76,2.47c-1.55,2.3-5.15,1.2-5.15-1.56c0-1.55,1.26-2.81,2.81-2.81
		c5.07,0,9.19-4.12,9.19-9.19V9.42c0-5.07-4.12-9.19-9.19-9.19h-14.21c-2.45,0-4.76,0.96-6.5,2.69L81.11,30.05L57.74,6.68
		c-0.53-0.53-1.25-0.83-2.01-0.83H18.67c-1.57,0-2.84,1.27-2.84,2.84v61.02C6.37,72.73-0.5,81.59-0.5,92.03
		c0,12.91,10.5,23.42,23.42,23.42h78.96c12.91,0,23.42-10.51,23.42-23.42c0-12.91-10.5-23.42-23.42-23.42H82.66V54.48l35.87-35.87
		h1.22v5.56c-7.25,3.51-12,10.94-12,19.09c0,20.89,27.14,29.05,38.75,11.86C149.35,50.92,148.24,45.2,144.04,42.36z M119.6,92.03
		c0,9.78-7.96,17.73-17.73,17.73H22.91c-9.78,0-17.73-7.96-17.73-17.73c0-9.78,7.96-17.73,17.73-17.73h78.96
		C111.65,74.3,119.6,82.25,119.6,92.03z M76.98,68.61H21.51V11.53h33.05l22.42,22.42v0.22V68.61z M141.8,51.93
		c-8.51,12.58-28.36,6.61-28.36-8.67c0-6.46,4.08-12.3,10.14-14.55l1.86-0.69v-15.1h-9.26L82.66,46.44v-9.91l29.59-29.59
		c0.66-0.66,1.54-1.03,2.48-1.03h14.21c1.93,0,3.5,1.57,3.5,3.5v21.84c0,1.93-1.57,3.5-3.5,3.5c-4.68,0-8.5,3.81-8.5,8.5
		c0,8.35,10.86,11.66,15.55,4.75c1.08-1.6,3.26-2.02,4.87-0.94C142.46,48.15,142.88,50.33,141.8,51.93z"/>
</g>
</svg>
